<?xml version="1.0" encoding="UTF-8"?>
<svg id="Capa_1" data-name="Capa 1" xmlns="http://www.w3.org/2000/svg" viewBox="0 0 291.45 291.63">
  <defs>
    <style>
      .cls-1 {
        fill: #090157;
      }

      .cls-2 {
        fill: #e28418;
      }
    </style>
  </defs>
  <g>
    <rect class="cls-1" x="137.51" y="206.5" width="17.19" height="68.7" rx="4.31" ry="4.31"/>
    <path class="cls-1" d="M150.39,275.57h-8.57c-2.58,0-4.67-2.1-4.67-4.67v-60.09c0-2.57,2.1-4.67,4.67-4.67h8.57c2.57,0,4.67,2.1,4.67,4.67v60.09c0,2.58-2.1,4.67-4.67,4.67ZM141.82,206.87c-2.17,0-3.94,1.77-3.94,3.94v60.09c0,2.17,1.77,3.94,3.94,3.94h8.57c2.17,0,3.94-1.77,3.94-3.94v-60.09c0-2.17-1.77-3.94-3.94-3.94h-8.57Z"/>
  </g>
  <rect class="cls-2" x="171.87" y="206.5" width="17.19" height="51.53" rx="4.31" ry="4.31"/>
  <rect class="cls-2" x="103.17" y="206.5" width="17.17" height="51.53" rx="4.31" ry="4.31"/>
  <path class="cls-1" d="M240.58,210.81v25.74c0,2.38-1.93,4.31-4.31,4.31h-25.74c-2.38,0-4.31-1.93-4.31-4.31v-8.57c0-2.38,1.93-4.31,4.31-4.31h12.88v-12.86c0-2.38,1.93-4.31,4.31-4.31h8.56c2.38,0,4.31,1.93,4.31,4.31Z"/>
  <rect class="cls-2" x="206.03" y="172.64" width="51.54" height="17.17" rx="4.31" ry="4.31"/>
  <rect class="cls-2" x="206.22" y="137.79" width="68.72" height="17.17" rx="4.31" ry="4.31"/>
  <rect class="cls-1" x="137.51" y="17.54" width="17.19" height="68.71" rx="4.31" ry="4.31"/>
  <rect class="cls-2" x="171.87" y="34.72" width="17.19" height="51.54" rx="4.31" ry="4.31"/>
  <path class="cls-1" d="M240.58,56.21v25.74c0,2.38-1.93,4.31-4.31,4.31h-8.56c-2.38,0-4.31-1.93-4.31-4.31v-12.88h-12.88c-2.38,0-4.31-1.93-4.31-4.31v-8.56c0-2.38,1.93-4.31,4.31-4.31h25.74c2.38,0,4.31,1.93,4.31,4.31Z"/>
  <rect class="cls-2" x="206.22" y="103.43" width="51.54" height="17.19" rx="4.31" ry="4.31"/>
  <rect class="cls-2" x="34.45" y="103.43" width="51.53" height="17.19" rx="4.31" ry="4.31"/>
  <rect class="cls-2" x="17.27" y="137.79" width="68.72" height="17.17" rx="4.31" ry="4.31"/>
  <rect class="cls-2" x="103.17" y="34.72" width="17.17" height="51.54" rx="4.31" ry="4.31"/>
  <path class="cls-1" d="M85.98,56.21v8.55c0,2.38-1.93,4.31-4.31,4.31h-12.85s0,0,0,0v12.87c0,2.38-1.93,4.31-4.31,4.31h-8.57c-2.38,0-4.31-1.93-4.31-4.31v-25.74c0-2.38,1.93-4.31,4.31-4.31h25.74c2.38,0,4.31,1.93,4.31,4.31Z"/>
  <rect class="cls-2" x="34.58" y="172.94" width="51.53" height="17.17" rx="4.31" ry="4.31"/>
  <path class="cls-1" d="M85.98,227.98v8.57c0,2.38-1.93,4.31-4.31,4.31h-25.74c-2.38,0-4.31-1.93-4.31-4.31v-25.74c0-2.38,1.93-4.31,4.31-4.31h8.57c2.38,0,4.31,1.93,4.31,4.31v12.86h12.86c2.38,0,4.31,1.93,4.31,4.31Z"/>
  <path class="cls-1" d="M158.32,12.77c0,7.06-5.73,12.79-12.79,12.79s-12.77-5.73-12.77-12.79,5.71-12.77,12.77-12.77,12.79,5.71,12.79,12.77Z"/>
  <path class="cls-2" d="M25.56,146.01c0,7.06-5.73,12.79-12.79,12.79s-12.77-5.73-12.77-12.79,5.71-12.77,12.77-12.77,12.79,5.71,12.79,12.77Z"/>
  <path class="cls-2" d="M291.45,147.21c0,7.06-5.73,12.79-12.79,12.79s-12.77-5.73-12.77-12.79,5.71-12.77,12.77-12.77,12.79,5.71,12.79,12.77Z"/>
  <path class="cls-1" d="M159.03,278.84c0,7.06-5.73,12.79-12.79,12.79s-12.77-5.73-12.77-12.79,5.71-12.77,12.77-12.77,12.79,5.71,12.79,12.77Z"/>
  <path class="cls-1" d="M153.69,103.43c-2.43-.45-4.94-.67-7.5-.67s-5.07.22-7.5.67c-20.09,3.53-35.35,21.08-35.35,42.19,0,23.67,19.18,42.84,42.84,42.84s42.86-19.18,42.86-42.84c0-21.11-15.27-38.66-35.36-42.19ZM146.06,176.62c-17.19,0-31.13-13.95-31.13-31.13s13.95-31.15,31.13-31.15,31.15,13.95,31.15,31.15-13.95,31.13-31.15,31.13Z"/>
  <path class="cls-2" d="M164.83,144.69c0,10.36-8.4,18.75-18.77,18.75s-18.75-8.4-18.75-18.75,8.4-18.77,18.75-18.77,18.77,8.4,18.77,18.77Z"/>
</svg>